<mxfile host="app.diagrams.net" agent="Mozilla/5.0 (Windows NT 10.0; Win64; x64) AppleWebKit/537.36 (KHTML, like Gecko) Chrome/134.0.0.0 Safari/537.36 Edg/134.0.0.0" version="26.0.16">
  <diagram id="C5RBs43oDa-KdzZeNtuy" name="Page-1">
    <mxGraphModel dx="880" dy="480" grid="1" gridSize="10" guides="1" tooltips="1" connect="1" arrows="1" fold="1" page="1" pageScale="1" pageWidth="827" pageHeight="1169" math="0" shadow="0">
      <root>
        <mxCell id="WIyWlLk6GJQsqaUBKTNV-0" />
        <mxCell id="WIyWlLk6GJQsqaUBKTNV-1" parent="WIyWlLk6GJQsqaUBKTNV-0" />
        <mxCell id="a2p2T6IdddS_6BBrWft--6" style="edgeStyle=orthogonalEdgeStyle;rounded=0;orthogonalLoop=1;jettySize=auto;html=1;exitX=0.5;exitY=1;exitDx=0;exitDy=0;entryX=0.5;entryY=0;entryDx=0;entryDy=0;" edge="1" parent="WIyWlLk6GJQsqaUBKTNV-1" source="a2p2T6IdddS_6BBrWft--0" target="a2p2T6IdddS_6BBrWft--2">
          <mxGeometry relative="1" as="geometry" />
        </mxCell>
        <mxCell id="a2p2T6IdddS_6BBrWft--0" value="Inicio" style="ellipse;whiteSpace=wrap;html=1;" vertex="1" parent="WIyWlLk6GJQsqaUBKTNV-1">
          <mxGeometry x="190" y="80" width="120" height="60" as="geometry" />
        </mxCell>
        <mxCell id="a2p2T6IdddS_6BBrWft--1" value="Fin" style="ellipse;whiteSpace=wrap;html=1;" vertex="1" parent="WIyWlLk6GJQsqaUBKTNV-1">
          <mxGeometry x="190" y="1160" width="120" height="60" as="geometry" />
        </mxCell>
        <mxCell id="a2p2T6IdddS_6BBrWft--7" style="edgeStyle=orthogonalEdgeStyle;rounded=0;orthogonalLoop=1;jettySize=auto;html=1;" edge="1" parent="WIyWlLk6GJQsqaUBKTNV-1" source="a2p2T6IdddS_6BBrWft--2" target="a2p2T6IdddS_6BBrWft--3">
          <mxGeometry relative="1" as="geometry" />
        </mxCell>
        <mxCell id="a2p2T6IdddS_6BBrWft--2" value="&quot;Introduzca la longitud del vector: \n&quot;" style="shape=document;whiteSpace=wrap;html=1;boundedLbl=1;" vertex="1" parent="WIyWlLk6GJQsqaUBKTNV-1">
          <mxGeometry x="180" y="170" width="140" height="50" as="geometry" />
        </mxCell>
        <mxCell id="a2p2T6IdddS_6BBrWft--8" style="edgeStyle=orthogonalEdgeStyle;rounded=0;orthogonalLoop=1;jettySize=auto;html=1;exitX=0.5;exitY=1;exitDx=0;exitDy=0;entryX=0.5;entryY=0;entryDx=0;entryDy=0;" edge="1" parent="WIyWlLk6GJQsqaUBKTNV-1" source="a2p2T6IdddS_6BBrWft--3" target="a2p2T6IdddS_6BBrWft--4">
          <mxGeometry relative="1" as="geometry" />
        </mxCell>
        <mxCell id="a2p2T6IdddS_6BBrWft--3" value="longitud = validar_int_min(1);" style="rounded=0;whiteSpace=wrap;html=1;" vertex="1" parent="WIyWlLk6GJQsqaUBKTNV-1">
          <mxGeometry x="170" y="250" width="160" height="50" as="geometry" />
        </mxCell>
        <mxCell id="a2p2T6IdddS_6BBrWft--9" style="edgeStyle=orthogonalEdgeStyle;rounded=0;orthogonalLoop=1;jettySize=auto;html=1;exitX=0.5;exitY=1;exitDx=0;exitDy=0;entryX=0.5;entryY=0;entryDx=0;entryDy=0;" edge="1" parent="WIyWlLk6GJQsqaUBKTNV-1" source="a2p2T6IdddS_6BBrWft--4" target="a2p2T6IdddS_6BBrWft--5">
          <mxGeometry relative="1" as="geometry" />
        </mxCell>
        <mxCell id="a2p2T6IdddS_6BBrWft--4" value="*vector = malloc(sizeof(int) * longitud))" style="rounded=0;whiteSpace=wrap;html=1;" vertex="1" parent="WIyWlLk6GJQsqaUBKTNV-1">
          <mxGeometry x="170" y="330" width="160" height="50" as="geometry" />
        </mxCell>
        <mxCell id="a2p2T6IdddS_6BBrWft--21" style="edgeStyle=orthogonalEdgeStyle;rounded=0;orthogonalLoop=1;jettySize=auto;html=1;exitX=0.5;exitY=1;exitDx=0;exitDy=0;entryX=0.5;entryY=0;entryDx=0;entryDy=0;" edge="1" parent="WIyWlLk6GJQsqaUBKTNV-1" source="a2p2T6IdddS_6BBrWft--5" target="a2p2T6IdddS_6BBrWft--20">
          <mxGeometry relative="1" as="geometry" />
        </mxCell>
        <mxCell id="a2p2T6IdddS_6BBrWft--5" value="i = 0" style="rounded=0;whiteSpace=wrap;html=1;" vertex="1" parent="WIyWlLk6GJQsqaUBKTNV-1">
          <mxGeometry x="210" y="410" width="80" height="40" as="geometry" />
        </mxCell>
        <mxCell id="a2p2T6IdddS_6BBrWft--13" style="edgeStyle=orthogonalEdgeStyle;rounded=0;orthogonalLoop=1;jettySize=auto;html=1;exitX=0.5;exitY=1;exitDx=0;exitDy=0;entryX=0.5;entryY=0;entryDx=0;entryDy=0;" edge="1" parent="WIyWlLk6GJQsqaUBKTNV-1" source="a2p2T6IdddS_6BBrWft--10" target="a2p2T6IdddS_6BBrWft--12">
          <mxGeometry relative="1" as="geometry" />
        </mxCell>
        <mxCell id="a2p2T6IdddS_6BBrWft--29" style="edgeStyle=orthogonalEdgeStyle;rounded=0;orthogonalLoop=1;jettySize=auto;html=1;exitX=1;exitY=0.5;exitDx=0;exitDy=0;entryX=0.5;entryY=0;entryDx=0;entryDy=0;" edge="1" parent="WIyWlLk6GJQsqaUBKTNV-1" source="a2p2T6IdddS_6BBrWft--10" target="a2p2T6IdddS_6BBrWft--16">
          <mxGeometry relative="1" as="geometry">
            <Array as="points">
              <mxPoint x="340" y="550" />
              <mxPoint x="340" y="890" />
              <mxPoint x="250" y="890" />
            </Array>
          </mxGeometry>
        </mxCell>
        <mxCell id="a2p2T6IdddS_6BBrWft--10" value="i &amp;lt; longitud" style="rhombus;whiteSpace=wrap;html=1;" vertex="1" parent="WIyWlLk6GJQsqaUBKTNV-1">
          <mxGeometry x="180" y="510" width="140" height="80" as="geometry" />
        </mxCell>
        <mxCell id="a2p2T6IdddS_6BBrWft--26" style="edgeStyle=orthogonalEdgeStyle;rounded=0;orthogonalLoop=1;jettySize=auto;html=1;exitX=0.5;exitY=1;exitDx=0;exitDy=0;entryX=0.5;entryY=0;entryDx=0;entryDy=0;" edge="1" parent="WIyWlLk6GJQsqaUBKTNV-1" source="a2p2T6IdddS_6BBrWft--11" target="a2p2T6IdddS_6BBrWft--18">
          <mxGeometry relative="1" as="geometry" />
        </mxCell>
        <mxCell id="a2p2T6IdddS_6BBrWft--11" value="vector[i] = validar_int()" style="rounded=0;whiteSpace=wrap;html=1;" vertex="1" parent="WIyWlLk6GJQsqaUBKTNV-1">
          <mxGeometry x="180" y="740" width="140" height="50" as="geometry" />
        </mxCell>
        <mxCell id="a2p2T6IdddS_6BBrWft--14" style="edgeStyle=orthogonalEdgeStyle;rounded=0;orthogonalLoop=1;jettySize=auto;html=1;" edge="1" parent="WIyWlLk6GJQsqaUBKTNV-1" source="a2p2T6IdddS_6BBrWft--12" target="a2p2T6IdddS_6BBrWft--11">
          <mxGeometry relative="1" as="geometry" />
        </mxCell>
        <mxCell id="a2p2T6IdddS_6BBrWft--12" value="&quot;Introduzca el valor para la posicion %d del vector\n&quot;, i" style="shape=document;whiteSpace=wrap;html=1;boundedLbl=1;" vertex="1" parent="WIyWlLk6GJQsqaUBKTNV-1">
          <mxGeometry x="190" y="615" width="120" height="80" as="geometry" />
        </mxCell>
        <mxCell id="a2p2T6IdddS_6BBrWft--31" style="edgeStyle=orthogonalEdgeStyle;rounded=0;orthogonalLoop=1;jettySize=auto;html=1;exitX=0.5;exitY=1;exitDx=0;exitDy=0;entryX=0.5;entryY=0;entryDx=0;entryDy=0;" edge="1" parent="WIyWlLk6GJQsqaUBKTNV-1" source="a2p2T6IdddS_6BBrWft--16" target="a2p2T6IdddS_6BBrWft--30">
          <mxGeometry relative="1" as="geometry" />
        </mxCell>
        <mxCell id="a2p2T6IdddS_6BBrWft--16" value="max_num = valor_maximo(vector, longitud)" style="rounded=0;whiteSpace=wrap;html=1;" vertex="1" parent="WIyWlLk6GJQsqaUBKTNV-1">
          <mxGeometry x="160" y="930" width="180" height="40" as="geometry" />
        </mxCell>
        <mxCell id="a2p2T6IdddS_6BBrWft--25" style="edgeStyle=orthogonalEdgeStyle;rounded=0;orthogonalLoop=1;jettySize=auto;html=1;exitX=0.5;exitY=1;exitDx=0;exitDy=0;entryX=0;entryY=0.5;entryDx=0;entryDy=0;" edge="1" parent="WIyWlLk6GJQsqaUBKTNV-1" source="a2p2T6IdddS_6BBrWft--18" target="a2p2T6IdddS_6BBrWft--20">
          <mxGeometry relative="1" as="geometry">
            <Array as="points">
              <mxPoint x="250" y="880" />
              <mxPoint x="110" y="880" />
              <mxPoint x="110" y="480" />
            </Array>
          </mxGeometry>
        </mxCell>
        <mxCell id="a2p2T6IdddS_6BBrWft--18" value="i = i + 1" style="rounded=0;whiteSpace=wrap;html=1;" vertex="1" parent="WIyWlLk6GJQsqaUBKTNV-1">
          <mxGeometry x="210" y="820" width="80" height="40" as="geometry" />
        </mxCell>
        <mxCell id="a2p2T6IdddS_6BBrWft--22" style="edgeStyle=orthogonalEdgeStyle;rounded=0;orthogonalLoop=1;jettySize=auto;html=1;exitX=0.5;exitY=1;exitDx=0;exitDy=0;entryX=0.5;entryY=0;entryDx=0;entryDy=0;" edge="1" parent="WIyWlLk6GJQsqaUBKTNV-1" source="a2p2T6IdddS_6BBrWft--20" target="a2p2T6IdddS_6BBrWft--10">
          <mxGeometry relative="1" as="geometry" />
        </mxCell>
        <mxCell id="a2p2T6IdddS_6BBrWft--20" value="" style="ellipse;whiteSpace=wrap;html=1;aspect=fixed;" vertex="1" parent="WIyWlLk6GJQsqaUBKTNV-1">
          <mxGeometry x="240" y="470" width="20" height="20" as="geometry" />
        </mxCell>
        <mxCell id="a2p2T6IdddS_6BBrWft--23" value="SÃ­" style="text;html=1;align=center;verticalAlign=middle;whiteSpace=wrap;rounded=0;" vertex="1" parent="WIyWlLk6GJQsqaUBKTNV-1">
          <mxGeometry x="240" y="585" width="60" height="30" as="geometry" />
        </mxCell>
        <mxCell id="a2p2T6IdddS_6BBrWft--24" value="No" style="text;html=1;align=center;verticalAlign=middle;whiteSpace=wrap;rounded=0;" vertex="1" parent="WIyWlLk6GJQsqaUBKTNV-1">
          <mxGeometry x="300" y="520" width="60" height="30" as="geometry" />
        </mxCell>
        <mxCell id="a2p2T6IdddS_6BBrWft--34" style="edgeStyle=orthogonalEdgeStyle;rounded=0;orthogonalLoop=1;jettySize=auto;html=1;" edge="1" parent="WIyWlLk6GJQsqaUBKTNV-1" source="a2p2T6IdddS_6BBrWft--30" target="a2p2T6IdddS_6BBrWft--33">
          <mxGeometry relative="1" as="geometry" />
        </mxCell>
        <mxCell id="a2p2T6IdddS_6BBrWft--30" value="&quot;El valor maximo del vector es: %d\n&quot;, max_num" style="shape=document;whiteSpace=wrap;html=1;boundedLbl=1;" vertex="1" parent="WIyWlLk6GJQsqaUBKTNV-1">
          <mxGeometry x="160" y="1000" width="180" height="60" as="geometry" />
        </mxCell>
        <mxCell id="a2p2T6IdddS_6BBrWft--35" style="edgeStyle=orthogonalEdgeStyle;rounded=0;orthogonalLoop=1;jettySize=auto;html=1;exitX=0.5;exitY=1;exitDx=0;exitDy=0;" edge="1" parent="WIyWlLk6GJQsqaUBKTNV-1" source="a2p2T6IdddS_6BBrWft--33" target="a2p2T6IdddS_6BBrWft--1">
          <mxGeometry relative="1" as="geometry" />
        </mxCell>
        <mxCell id="a2p2T6IdddS_6BBrWft--33" value="free(vector)" style="rounded=0;whiteSpace=wrap;html=1;" vertex="1" parent="WIyWlLk6GJQsqaUBKTNV-1">
          <mxGeometry x="210" y="1090" width="80" height="40" as="geometry" />
        </mxCell>
        <mxCell id="a2p2T6IdddS_6BBrWft--38" style="edgeStyle=orthogonalEdgeStyle;rounded=0;orthogonalLoop=1;jettySize=auto;html=1;exitX=0.5;exitY=1;exitDx=0;exitDy=0;" edge="1" parent="WIyWlLk6GJQsqaUBKTNV-1" source="a2p2T6IdddS_6BBrWft--36" target="a2p2T6IdddS_6BBrWft--37">
          <mxGeometry relative="1" as="geometry" />
        </mxCell>
        <mxCell id="a2p2T6IdddS_6BBrWft--36" value="int valor_maximo(int *vector, int longitud)" style="shape=step;perimeter=stepPerimeter;whiteSpace=wrap;html=1;fixedSize=1;" vertex="1" parent="WIyWlLk6GJQsqaUBKTNV-1">
          <mxGeometry x="540" y="70" width="280" height="40" as="geometry" />
        </mxCell>
        <mxCell id="a2p2T6IdddS_6BBrWft--40" style="edgeStyle=orthogonalEdgeStyle;rounded=0;orthogonalLoop=1;jettySize=auto;html=1;exitX=0.5;exitY=1;exitDx=0;exitDy=0;entryX=0.5;entryY=0;entryDx=0;entryDy=0;" edge="1" parent="WIyWlLk6GJQsqaUBKTNV-1" source="a2p2T6IdddS_6BBrWft--37" target="a2p2T6IdddS_6BBrWft--39">
          <mxGeometry relative="1" as="geometry" />
        </mxCell>
        <mxCell id="a2p2T6IdddS_6BBrWft--43" style="edgeStyle=orthogonalEdgeStyle;rounded=0;orthogonalLoop=1;jettySize=auto;html=1;exitX=1;exitY=0.5;exitDx=0;exitDy=0;entryX=0.5;entryY=0;entryDx=0;entryDy=0;" edge="1" parent="WIyWlLk6GJQsqaUBKTNV-1" source="a2p2T6IdddS_6BBrWft--37" target="a2p2T6IdddS_6BBrWft--42">
          <mxGeometry relative="1" as="geometry">
            <Array as="points">
              <mxPoint x="770" y="180" />
              <mxPoint x="770" y="320" />
              <mxPoint x="680" y="320" />
            </Array>
          </mxGeometry>
        </mxCell>
        <mxCell id="a2p2T6IdddS_6BBrWft--37" value="longitud == 1" style="rhombus;whiteSpace=wrap;html=1;" vertex="1" parent="WIyWlLk6GJQsqaUBKTNV-1">
          <mxGeometry x="610" y="150" width="140" height="60" as="geometry" />
        </mxCell>
        <mxCell id="a2p2T6IdddS_6BBrWft--39" value="return vector[1]" style="rounded=0;whiteSpace=wrap;html=1;" vertex="1" parent="WIyWlLk6GJQsqaUBKTNV-1">
          <mxGeometry x="620" y="250" width="120" height="40" as="geometry" />
        </mxCell>
        <mxCell id="a2p2T6IdddS_6BBrWft--41" value="SÃ­" style="text;html=1;align=center;verticalAlign=middle;whiteSpace=wrap;rounded=0;" vertex="1" parent="WIyWlLk6GJQsqaUBKTNV-1">
          <mxGeometry x="670" y="200" width="60" height="30" as="geometry" />
        </mxCell>
        <mxCell id="a2p2T6IdddS_6BBrWft--46" style="edgeStyle=orthogonalEdgeStyle;rounded=0;orthogonalLoop=1;jettySize=auto;html=1;exitX=0.5;exitY=1;exitDx=0;exitDy=0;entryX=0.5;entryY=0;entryDx=0;entryDy=0;" edge="1" parent="WIyWlLk6GJQsqaUBKTNV-1" source="a2p2T6IdddS_6BBrWft--42" target="a2p2T6IdddS_6BBrWft--45">
          <mxGeometry relative="1" as="geometry" />
        </mxCell>
        <mxCell id="a2p2T6IdddS_6BBrWft--42" value="max = valor_maximo(vector, longitud - 1)" style="rounded=0;whiteSpace=wrap;html=1;" vertex="1" parent="WIyWlLk6GJQsqaUBKTNV-1">
          <mxGeometry x="590" y="360" width="180" height="40" as="geometry" />
        </mxCell>
        <mxCell id="a2p2T6IdddS_6BBrWft--44" value="No" style="text;html=1;align=center;verticalAlign=middle;whiteSpace=wrap;rounded=0;" vertex="1" parent="WIyWlLk6GJQsqaUBKTNV-1">
          <mxGeometry x="730" y="150" width="60" height="30" as="geometry" />
        </mxCell>
        <mxCell id="a2p2T6IdddS_6BBrWft--45" value="vector[longitud - 1] &amp;gt; max" style="rhombus;whiteSpace=wrap;html=1;" vertex="1" parent="WIyWlLk6GJQsqaUBKTNV-1">
          <mxGeometry x="590" y="440" width="180" height="60" as="geometry" />
        </mxCell>
        <mxCell id="a2p2T6IdddS_6BBrWft--50" style="edgeStyle=orthogonalEdgeStyle;rounded=0;orthogonalLoop=1;jettySize=auto;html=1;exitX=0.75;exitY=1;exitDx=0;exitDy=0;entryX=0.5;entryY=0;entryDx=0;entryDy=0;" edge="1" parent="WIyWlLk6GJQsqaUBKTNV-1" source="a2p2T6IdddS_6BBrWft--47" target="a2p2T6IdddS_6BBrWft--49">
          <mxGeometry relative="1" as="geometry">
            <Array as="points">
              <mxPoint x="580" y="470" />
            </Array>
          </mxGeometry>
        </mxCell>
        <mxCell id="a2p2T6IdddS_6BBrWft--47" value="SÃ­" style="text;html=1;align=center;verticalAlign=middle;whiteSpace=wrap;rounded=0;" vertex="1" parent="WIyWlLk6GJQsqaUBKTNV-1">
          <mxGeometry x="550" y="440" width="60" height="30" as="geometry" />
        </mxCell>
        <mxCell id="a2p2T6IdddS_6BBrWft--52" style="edgeStyle=orthogonalEdgeStyle;rounded=0;orthogonalLoop=1;jettySize=auto;html=1;exitX=0.25;exitY=1;exitDx=0;exitDy=0;entryX=0.5;entryY=0;entryDx=0;entryDy=0;" edge="1" parent="WIyWlLk6GJQsqaUBKTNV-1" source="a2p2T6IdddS_6BBrWft--48" target="a2p2T6IdddS_6BBrWft--51">
          <mxGeometry relative="1" as="geometry">
            <Array as="points">
              <mxPoint x="780" y="470" />
            </Array>
          </mxGeometry>
        </mxCell>
        <mxCell id="a2p2T6IdddS_6BBrWft--48" value="No" style="text;html=1;align=center;verticalAlign=middle;whiteSpace=wrap;rounded=0;" vertex="1" parent="WIyWlLk6GJQsqaUBKTNV-1">
          <mxGeometry x="750" y="440" width="60" height="30" as="geometry" />
        </mxCell>
        <mxCell id="a2p2T6IdddS_6BBrWft--49" value="return vector[longitud - 1]" style="rounded=0;whiteSpace=wrap;html=1;" vertex="1" parent="WIyWlLk6GJQsqaUBKTNV-1">
          <mxGeometry x="510" y="550" width="140" height="40" as="geometry" />
        </mxCell>
        <mxCell id="a2p2T6IdddS_6BBrWft--51" value="return max" style="rounded=0;whiteSpace=wrap;html=1;" vertex="1" parent="WIyWlLk6GJQsqaUBKTNV-1">
          <mxGeometry x="720" y="550" width="120" height="40" as="geometry" />
        </mxCell>
      </root>
    </mxGraphModel>
  </diagram>
</mxfile>
